<?xml version="1.0" encoding="UTF-8"?>
<svg version="1.1" xmlns="http://www.w3.org/2000/svg" width="491" height="443">
<path d="M0 0 C1.05429199 0.48879639 2.10858398 0.97759277 3.19482422 1.48120117 C34.97180366 16.41690036 64.71473171 35.06512367 91.125 58.25 C91.8571875 58.88292969 92.589375 59.51585938 93.34375 60.16796875 C95.28262211 61.84909397 97.20529736 63.54703798 99.125 65.25 C99.8675 65.8996875 100.61 66.549375 101.375 67.21875 C111.3584098 76.0502279 120.81902505 85.26615915 129.09765625 95.73046875 C130.94234515 98.02300119 132.86761898 100.16322511 134.875 102.3125 C159.36161237 129.66560072 176.89540113 164.54187816 190.25 198.4375 C190.54559814 199.18612305 190.84119629 199.93474609 191.14575195 200.70605469 C192.29093134 203.69506031 193.125 206.02094241 193.125 209.25 C205.335 209.25 217.545 209.25 230.125 209.25 C227.45855062 219.91579753 224.69524729 230.36016744 221.33007812 240.796875 C221.02908203 241.78171875 220.72808594 242.7665625 220.41796875 243.78125 C220.1449292 244.64298828 219.87188965 245.50472656 219.59057617 246.39257812 C218.51780288 252.97660469 220.54513285 259.3472088 222.41015625 265.6171875 C222.63070175 266.37798615 222.85124725 267.13878479 223.07847595 267.92263794 C223.7757794 270.32513174 224.48111198 272.72516315 225.1875 275.125 C225.8962403 277.54658945 226.60322557 279.96866316 227.30723572 282.39163208 C227.74379327 283.89273975 228.18328104 285.392999 228.62599182 286.89230347 C230.125 292.02715083 230.125 292.02715083 230.125 294.25 C224.185 294.25 218.245 294.25 212.125 294.25 C212.455 295.57 212.785 296.89 213.125 298.25 C214.61948066 309.64409013 214.31114349 321.24873023 214.31030273 332.71411133 C214.31248823 336.04456388 214.33069645 339.3746839 214.34960938 342.70507812 C214.36981395 348.88995583 214.28733493 355.06733517 214.125 361.25 C214.10853424 362.09233185 214.09206848 362.9346637 214.07510376 363.80252075 C213.7425225 375.35930916 213.7425225 375.35930916 210.26879883 379.41967773 C207.73644933 381.18258562 205.28211426 382.37032552 202.4375 383.5625 C201.45217285 384.03357178 200.4668457 384.50464355 199.45166016 384.98999023 C197.38573966 385.97121242 195.30749186 386.92686188 193.21826172 387.85742188 C190.28001032 389.18021477 187.40797009 390.5882832 184.53515625 392.046875 C169.8136103 399.45979656 154.57374211 405.5339879 139.125 411.25 C138.13483887 411.61722168 137.14467773 411.98444336 136.12451172 412.36279297 C108.45014652 422.46718733 79.25654543 429.104357 50.125 433.25 C49.06603516 433.41226074 48.00707031 433.57452148 46.91601562 433.74169922 C9.22860913 439.34622606 -32.22414491 438.96969337 -69.875 433.25 C-70.55467834 433.1481842 -71.23435669 433.04636841 -71.93463135 432.94146729 C-125.26012919 424.91987192 -176.78424685 409.82391158 -225.1875 385.8125 C-226.69098999 385.06842896 -226.69098999 385.06842896 -228.22485352 384.30932617 C-229.15740967 383.8372876 -230.08996582 383.36524902 -231.05078125 382.87890625 C-231.86458252 382.46713135 -232.67838379 382.05535645 -233.5168457 381.63110352 C-240.51170284 377.53441578 -240.51170284 377.53441578 -241.57763672 373.76586914 C-241.61131348 372.76160889 -241.64499023 371.75734863 -241.6796875 370.72265625 C-241.72577148 369.47758301 -241.77185547 368.23250977 -241.81933594 366.94970703 C-241.84179466 365.38318913 -241.85989704 363.81660609 -241.875 362.25 C-241.88809204 361.29019226 -241.90118408 360.33038452 -241.91467285 359.3414917 C-242.00124467 352.3638837 -242.01736171 345.3874993 -242.00537109 338.40942383 C-242.00000769 334.69282969 -242.00534339 330.97635611 -242.01171875 327.25976562 C-242.01105793 324.85937474 -242.0097767 322.45898392 -242.0078125 320.05859375 C-242.00983673 318.96655136 -242.01186096 317.87450897 -242.01394653 316.74937439 C-241.99140094 309.20376641 -241.52360715 301.76823927 -240.875 294.25 C-247.145 294.25 -253.415 294.25 -259.875 294.25 C-258.62331637 288.61742364 -257.38027561 283.36475603 -255.67578125 277.90625 C-255.26674666 276.56405519 -254.85856899 275.22159899 -254.45117188 273.87890625 C-253.82056592 271.80961539 -253.18511253 269.74242405 -252.53491211 267.67919922 C-248.94541158 256.63062232 -248.94541158 256.63062232 -249.875 245.25 C-250.18091064 244.09242188 -250.48682129 242.93484375 -250.80200195 241.7421875 C-251.92510474 237.64071627 -253.14610497 233.57077392 -254.375 229.5 C-255.00213726 227.40133512 -255.62707647 225.30204299 -256.24987793 223.2020874 C-256.81288736 221.30700807 -257.3818579 219.4137027 -257.95117188 217.52050781 C-258.72058547 214.79665355 -259.31990544 212.02547282 -259.875 209.25 C-247.665 209.25 -235.455 209.25 -222.875 209.25 C-222.545 207.6 -222.215 205.95 -221.875 204.25 C-209.03749423 163.5748921 -186.1050708 124.08570657 -157.140625 92.7265625 C-155.29267481 90.70656178 -153.50325533 88.65728519 -151.71875 86.58203125 C-141.98206101 75.42985353 -131.30748135 64.41061442 -119.578125 55.34375 C-117.53385302 53.76032546 -115.56913536 52.15112196 -113.609375 50.46875 C-87.9193991 28.61273767 -33.49072125 -15.59218052 0 0 Z " fill="#0E4F74" transform="translate(260.875,6.75)"/>
<path d="M0 0 C139.59 0 279.18 0 423 0 C424.26623948 9.49679611 425.29600604 18.11934056 425.23046875 27.55859375 C425.23001053 28.67259048 425.22955231 29.78658722 425.2290802 30.93434143 C425.22609147 33.25921715 425.21830884 35.5840915 425.20581055 37.90893555 C425.18741263 41.45433676 425.18530245 44.99947758 425.18554688 48.54492188 C425.1806351 50.82031474 425.17480827 53.09570586 425.16796875 55.37109375 C425.16685593 56.42018417 425.1657431 57.4692746 425.16459656 58.55015564 C425.06639293 73.82070286 425.06639293 73.82070286 422.46655273 76.69580078 C421.79567627 77.02563965 421.1247998 77.35547852 420.43359375 77.6953125 C419.6557251 78.09347168 418.87785645 78.49163086 418.07641602 78.90185547 C417.20557373 79.30549316 416.33473145 79.70913086 415.4375 80.125 C414.5105835 80.57891113 413.58366699 81.03282227 412.62866211 81.50048828 C409.43650779 83.04027897 406.22135849 84.52234664 403 86 C401.83887695 86.54462891 400.67775391 87.08925781 399.48144531 87.65039062 C346.49773426 112.4592499 288.31528706 128.2450192 229.515625 128.1328125 C228.37575134 128.13376923 227.23587769 128.13472595 226.0614624 128.13571167 C223.66825301 128.13638692 221.27504172 128.13457879 218.88183594 128.13037109 C215.27274331 128.12503363 211.66377624 128.13032837 208.0546875 128.13671875 C191.26345458 128.14293684 174.707008 127.81451005 158.0625 125.375 C156.30691772 125.11940308 156.30691772 125.11940308 154.51586914 124.85864258 C139.22016467 122.5369821 124.08999555 119.39328164 109 116 C107.25517334 115.60820557 107.25517334 115.60820557 105.47509766 115.20849609 C69.86371533 107.0131876 31.11640164 94.6280613 0 75 C-1.35336858 72.29326284 -1.12717154 70.17891138 -1.12939453 67.1484375 C-1.13254669 65.91955811 -1.13569885 64.69067871 -1.13894653 63.42456055 C-1.13715511 62.07470667 -1.13510375 60.72485312 -1.1328125 59.375 C-1.13348642 57.98933902 -1.13445718 56.60367815 -1.13571167 55.21801758 C-1.13718841 52.30597819 -1.13503747 49.39396942 -1.13037109 46.48193359 C-1.12471624 42.77467361 -1.12792574 39.0674867 -1.13394356 35.36022949 C-1.13758626 32.49293485 -1.13639296 29.62565702 -1.13381577 26.75836182 C-1.13315449 25.39341218 -1.13394656 24.02846096 -1.13629532 22.66351318 C-1.13887825 20.7379154 -1.13423449 18.81231219 -1.12939453 16.88671875 C-1.12859894 15.79576904 -1.12780334 14.70481934 -1.12698364 13.58081055 C-0.96599762 9.04116716 -0.45199534 4.51995341 0 0 Z " fill="#689C56" transform="translate(35,300)"/>
<path d="M0 0 C0.96941025 0.48157059 0.96941025 0.48157059 1.95840454 0.97286987 C4.04732363 2.01593808 6.12757577 3.07492311 8.20703125 4.13671875 C9.27840836 4.67868393 9.27840836 4.67868393 10.37142944 5.2315979 C51.85652319 26.23227605 92.11449997 54.79406059 122.01953125 90.82421875 C122.45813477 91.34371094 122.89673828 91.86320312 123.34863281 92.3984375 C137.28791208 108.93935042 149.31744518 126.41043883 159.68945312 145.39453125 C160.9024096 147.61026965 162.1373087 149.81195478 163.37890625 152.01171875 C168.16456069 160.62296525 172.16435537 169.51015541 176.01953125 178.57421875 C176.50107666 179.70625732 176.98262207 180.8382959 177.47875977 182.00463867 C179.40917237 186.62850449 181.09200403 190.8935367 182.01953125 195.82421875 C175.30056366 196.31064697 168.58617836 196.64040037 161.85351562 196.86791992 C159.57086785 196.96281543 157.28935542 197.09201544 155.01074219 197.25756836 C136.63283396 198.55819596 136.63283396 198.55819596 130.64416504 194.0269165 C126.42493547 189.58565414 123.34778612 184.57746776 120.40687561 179.23132324 C118.26444975 175.51411859 115.6597611 172.19611651 113.01953125 168.82421875 C112.04430954 167.53187987 111.07135652 166.23782313 110.1015625 164.94140625 C109.360271 163.95285645 109.360271 163.95285645 108.60400391 162.94433594 C100.93161058 152.67822444 93.25487583 142.40523018 86.01953125 131.82421875 C82.50903634 132.37569852 80.98194262 132.85162713 78.01953125 135.01171875 C77.02953125 135.60984375 76.03953125 136.20796875 75.01953125 136.82421875 C69.7598612 135.42397381 65.98134567 131.7732885 61.8359375 128.40625 C59.11693622 126.55933147 59.11693622 126.55933147 55.98828125 126.921875 C52.14809739 128.08908878 48.95360471 129.87929838 45.484375 131.86328125 C42.51113037 133.02242258 41.03077691 132.75699518 38.01953125 131.82421875 C37.33890625 131.45296875 36.65828125 131.08171875 35.95703125 130.69921875 C34.08606963 129.67290583 34.08606963 129.67290583 32.1328125 129.93969727 C29.02054282 131.24234896 28.0567772 133.2727565 26.26953125 136.1015625 C25.57859375 137.17212891 24.88765625 138.24269531 24.17578125 139.34570312 C23.45587568 140.48364477 22.73713696 141.62232538 22.01953125 142.76171875 C20.61381623 144.98669413 19.19555869 147.20185762 17.76953125 149.4140625 C17.145625 150.40269287 16.52171875 151.39132324 15.87890625 152.40991211 C14.01953125 154.82421875 14.01953125 154.82421875 10.01953125 156.82421875 C7.04953125 153.19421875 4.07953125 149.56421875 1.01953125 145.82421875 C-3.79162581 147.54953811 -3.79162581 147.54953811 -6.98046875 149.82421875 C-9.95678025 149.57091564 -12.24666754 149.27735667 -14.80859375 147.6953125 C-17.84701731 146.4766642 -19.6701841 147.29088106 -22.79296875 148.13671875 C-28.30144112 149.2357163 -28.30144112 149.2357163 -31.3203125 147.40625 C-33.05469853 145.62930235 -34.56761608 143.86390042 -35.98046875 141.82421875 C-39.74534917 143.54576663 -42.13110772 145.81655989 -44.98046875 148.82421875 C-49.0447618 147.4694544 -50.69023673 144.69153963 -53.16796875 141.38671875 C-53.8630957 140.48856445 -53.8630957 140.48856445 -54.57226562 139.57226562 C-57.98046875 135.08990128 -57.98046875 135.08990128 -57.98046875 132.82421875 C-58.63273438 133.42492187 -59.285 134.025625 -59.95703125 134.64453125 C-60.83101562 135.40507812 -61.705 136.165625 -62.60546875 136.94921875 C-63.46398437 137.71492187 -64.3225 138.480625 -65.20703125 139.26953125 C-67.98046875 140.82421875 -67.98046875 140.82421875 -70.96875 140.23828125 C-74.78422167 138.4468406 -78.55161356 136.58606739 -82.296875 134.65234375 C-84.89661046 133.61456016 -84.89661046 133.61456016 -87.28515625 134.296875 C-92.09059328 137.01995599 -96.4326818 140.41323495 -100.83007812 143.74414062 C-101.56162109 144.27974609 -102.29316406 144.81535156 -103.046875 145.3671875 C-103.70631104 145.8624292 -104.36574707 146.3576709 -105.04516602 146.86791992 C-106.98046875 147.82421875 -106.98046875 147.82421875 -109.11279297 147.57958984 C-111.54683321 146.59515579 -112.79041395 145.20246735 -114.54296875 143.26171875 C-116.22256262 141.33142202 -116.22256262 141.33142202 -117.98046875 139.82421875 C-118.97046875 139.82421875 -119.96046875 139.82421875 -120.98046875 139.82421875 C-121.47933594 140.73558594 -121.97820312 141.64695313 -122.4921875 142.5859375 C-127.3554593 151.38862133 -132.47498327 159.99415232 -137.84643555 168.49682617 C-138.35215088 169.30224854 -138.85786621 170.1076709 -139.37890625 170.9375 C-139.94665771 171.79964111 -140.51440918 172.66178223 -141.09936523 173.55004883 C-142.66281868 176.27133035 -143.79388272 178.78188952 -144.94165039 181.68237305 C-147.22001526 187.00667909 -149.47663372 192.03109528 -153.98046875 195.82421875 C-162.0856987 198.88118476 -171.20997901 197.60661961 -179.66796875 197.01171875 C-182.02635231 196.91630781 -184.38510649 196.82963362 -186.74414062 196.75195312 C-192.49772773 196.54354126 -198.23736955 196.22674347 -203.98046875 195.82421875 C-200.89606084 185.24825776 -200.89606084 185.24825776 -199 180.81640625 C-198.64494385 179.98343018 -198.2898877 179.1504541 -197.92407227 178.29223633 C-197.55080811 177.43654053 -197.17754395 176.58084473 -196.79296875 175.69921875 C-196.397146 174.78615967 -196.00132324 173.87310059 -195.59350586 172.93237305 C-192.00744153 164.74250972 -188.16127403 156.72599845 -183.98046875 148.82421875 C-183.60841309 148.1173291 -183.23635742 147.41043945 -182.85302734 146.68212891 C-174.03145528 130.04118584 -163.75071016 114.5223809 -151.98046875 99.82421875 C-151.25472656 98.90511719 -150.52898437 97.98601562 -149.78125 97.0390625 C-136.76320285 80.79571821 -121.97009983 64.68122127 -105.55078125 51.83984375 C-102.8048315 49.68648498 -100.18398404 47.4172612 -97.54296875 45.13671875 C-84.66973807 34.40345369 -70.57028259 25.05193925 -55.98046875 16.82421875 C-55.16884277 16.36305664 -54.3572168 15.90189453 -53.52099609 15.42675781 C-43.53399766 9.77817765 -33.44005567 4.37062469 -23.04296875 -0.48828125 C-22.2331958 -0.87951172 -21.42342285 -1.27074219 -20.58911133 -1.67382812 C-19.82236084 -2.02123047 -19.05561035 -2.36863281 -18.265625 -2.7265625 C-17.6044165 -3.03247314 -16.94320801 -3.33838379 -16.26196289 -3.65356445 C-10.32594749 -5.0122736 -5.22583629 -2.61452829 0 0 Z " fill="#78BAE6" transform="translate(256.98046875,21.17578125)"/>
<path d="M0 0 C53.13 0 106.26 0 161 0 C162.125 13.5 162.125 13.5 162.11352539 18.68652344 C162.11344986 19.84682068 162.11337433 21.00711792 162.11329651 22.20257568 C162.10813522 23.40931946 162.10297394 24.61606323 162.09765625 25.859375 C162.09553383 27.76496185 162.09553383 27.76496185 162.09336853 29.70904541 C162.08876005 33.04291801 162.07981826 36.37671847 162.06866455 39.71057129 C162.05832882 43.12995795 162.05384519 46.54935214 162.04882812 49.96875 C162.03786793 56.64585278 162.02118228 63.32292224 162 70 C158.86120033 71.53074467 155.72237309 73.06143214 152.58334351 74.59170532 C150.76591527 75.47840085 148.94884365 76.36583221 147.13320923 77.25619507 C139.91624499 80.79486429 132.67129111 84.00592603 125.13354492 86.81323242 C122.07393267 87.97199948 119.0708642 89.22256762 116.0625 90.5078125 C86.09565709 103.08563877 54.1013224 110.53296741 22 115 C22.20894897 114.1951416 22.20894897 114.1951416 22.42211914 113.37402344 C26.10571235 98.22146883 25.31336643 83.58293796 17.23828125 70.046875 C7.1427256 55.05712503 -8.99789288 46.94641192 -26.20703125 42.88671875 C-29.02937315 41.99067454 -30.28498414 41.38196647 -32 39 C-32.1875 36.3125 -32.1875 36.3125 -32 34 C-28.14694177 31.52668411 -23.9971426 31.48789735 -19.5625 31.125 C-9.04044021 30.10430609 1.12914612 28.04830946 10 22 C11.67463376 18.65073249 11.86336442 15.57505829 11 12 C8.67194926 8.64327568 5.92708043 5.83753304 3 3 C2.01 2.01 1.02 1.02 0 0 Z " fill="#689C56" transform="translate(288,300)"/>
<path d="M0 0 C2.82613048 1.91323437 5.51413235 3.90406689 8.18359375 6.02539062 C10.02321683 7.45398253 10.02321683 7.45398253 13 9 C16.11130345 8.29187973 17.90447548 7.06290639 20.5625 5.3125 C23 4 23 4 24.98095703 4.20751953 C27.46906788 5.18411056 28.22938561 6.18128132 29.7421875 8.3671875 C30.49447632 9.43380615 30.49447632 9.43380615 31.26196289 10.52197266 C31.79426514 11.29847168 32.32656738 12.0749707 32.875 12.875 C34.03673332 14.52676453 35.19952888 16.17778237 36.36328125 17.828125 C37.26167725 19.11106445 37.26167725 19.11106445 38.17822266 20.41992188 C41.08131319 24.53140147 44.06961997 28.57864616 47.0625 32.625 C47.64314209 33.41237549 48.22378418 34.19975098 48.82202148 35.01098633 C52.66535169 40.21646875 56.54464284 45.39400341 60.4375 50.5625 C73 67.25553188 73 67.25553188 73 69 C-21.71 69 -116.42 69 -214 69 C-212.40141078 64.20423233 -211.04826922 61.15492031 -208.4140625 57.01171875 C-207.69253697 55.86538421 -206.97152618 54.71872556 -206.25097656 53.57177734 C-205.87928345 52.9839447 -205.50759033 52.39611206 -205.12463379 51.79046631 C-203.28754204 48.86573569 -201.50000614 45.9112942 -199.7109375 42.95703125 C-198.98963496 41.76884887 -198.2682806 40.58069794 -197.546875 39.39257812 C-197.18916016 38.8029126 -196.83144531 38.21324707 -196.46289062 37.60571289 C-195.36898974 35.80259305 -194.27438153 33.99990403 -193.1796875 32.19726562 C-189.09995955 25.47668225 -185.03597992 18.74695827 -181 12 C-176.4562031 12.95269371 -174.77164112 15.16261271 -171.78125 18.6015625 C-171.1934375 19.06304687 -170.605625 19.52453125 -170 20 C-166.56145526 19.58078766 -164.39555107 18.03495643 -161.6640625 15.98828125 C-160.84679687 15.39595703 -160.02953125 14.80363281 -159.1875 14.19335938 C-157.47861628 12.93904914 -155.77802636 11.67336066 -154.0859375 10.39648438 C-147.81013324 5.89191732 -147.81013324 5.89191732 -143.75 6.43359375 C-142.38875 7.20896484 -142.38875 7.20896484 -141 8 C-140.05898437 8.44859375 -139.11796875 8.8971875 -138.1484375 9.359375 C-136.29113303 10.29064316 -134.43697384 11.22820941 -132.5859375 12.171875 C-130.07316576 13.25421168 -130.07316576 13.25421168 -127.859375 12.3046875 C-126.10097089 11.07084932 -124.47493457 9.80740215 -122.875 8.375 C-120 6 -120 6 -118 6 C-116.76318359 7.37695312 -116.76318359 7.37695312 -115.3984375 9.28125 C-114.90859375 9.95800781 -114.41875 10.63476562 -113.9140625 11.33203125 C-113.40617187 12.04746094 -112.89828125 12.76289063 -112.375 13.5 C-111.6015625 14.57314453 -111.6015625 14.57314453 -110.8125 15.66796875 C-109.53577041 17.44120429 -108.26529973 19.21859948 -107 21 C-103.23511958 19.27845212 -100.84936103 17.00765886 -98 14 C-95.02170218 15.21338059 -93.94605371 16.07417615 -92 18.75 C-89.2513882 21.32947267 -89.2513882 21.32947267 -86.22265625 20.7734375 C-84.10197819 20.33829219 -81.9847078 19.88622351 -79.87109375 19.41796875 C-76.09115435 18.86769186 -74.21660144 20.08535629 -71 22 C-66.70796103 21.82831844 -64.20742122 20.83733415 -61 18 C-57.612801 19.4388102 -55.6405896 21.22119499 -53.25 24 C-52.32960938 25.051875 -52.32960938 25.051875 -51.390625 26.125 C-50 28 -50 28 -50 30 C-43.86946678 24.56638674 -39.85859026 17.48931829 -35.43945312 10.6640625 C-34.79814453 9.69726562 -34.15683594 8.73046875 -33.49609375 7.734375 C-32.92044678 6.84975586 -32.3447998 5.96513672 -31.75170898 5.05371094 C-30 3 -30 3 -27.96508789 2.11035156 C-26 2 -26 2 -23.0625 3.5 C-19.50855819 5.24070619 -18.68943916 5.06669329 -15 4 C-12.44073429 2.74436026 -9.98087806 1.36418416 -7.5 -0.0390625 C-4.36636768 -1.24355242 -3.15142517 -1.14381546 0 0 Z " fill="#4A477C" transform="translate(317,148)"/>
<path d="M0 0 C2.97 0 5.94 0 9 0 C9 23.1 9 46.2 9 70 C28.263077 78.93044197 28.263077 78.93044197 47.875 86.8125 C49.09912598 87.26842529 50.32325195 87.72435059 51.58447266 88.1940918 C55.05120969 89.47734771 58.52336416 90.74384326 62 92 C62.87914062 92.31839844 63.75828125 92.63679688 64.6640625 92.96484375 C76.31645796 97.1374012 88.20037105 100.25393359 100.19433594 103.27978516 C102.86921314 103.96642697 105.53301409 104.68422828 108.1953125 105.41796875 C116.46411196 107.68892524 124.48931254 109.5536839 133.01171875 110.60546875 C135.55001964 110.94059083 137.95345094 111.39627008 140.4375 112 C152.18243995 114.77127797 164.25351974 116.58299466 175.9375 113 C176.66404785 112.77997314 177.3905957 112.55994629 178.13916016 112.33325195 C194.52485177 107.13851915 210.63656217 99.18015151 221 85 C223.47342965 79.95008114 224.07315349 74.4300159 222.3828125 69.02734375 C218.03004772 59.33955311 210.11696032 53.20599912 201.71875 47.140625 C197.415494 43.75242918 194.74844494 40.24533483 193 35 C192.63924338 31.10382851 192.57457019 28.76222841 194.5 25.3125 C205.16717369 15.44536434 221.34488907 15.64998099 235.05493164 15.37817383 C240.08169955 15.25567457 244.28801687 14.97855616 249 13 C248.81584568 10.05908413 248.81584568 10.05908413 248 7 C246.2857711 5.76603959 246.2857711 5.76603959 244 5 C241.97048465 3.71203834 239.96498322 2.38442 238 1 C238 0.67 238 0.34 238 0 C250.71905031 -1.37365743 250.71905031 -1.37365743 256.15234375 1.8984375 C264.73930791 9.6910129 264.73930791 9.6910129 265.4375 15.875 C265.33003769 19.13469005 265.03365003 19.95223866 263.0625 22.75 C254.33766874 29.16008011 244.31363703 31.05015145 233.75 32.0625 C232.18203756 32.21750282 230.61431638 32.3749701 229.046875 32.53515625 C228.36463867 32.600979 227.68240234 32.66680176 226.97949219 32.73461914 C224.93228788 33.00907783 222.99294624 33.46277343 221 34 C222.26946514 38.82442184 222.26946514 38.82442184 226 42 C228.09306265 42.60250507 230.1996171 43.15868106 232.3125 43.6875 C248.63528038 48.25248811 262.4737311 56.77675129 272 71 C273.58442491 73.92835676 274.87811052 76.86759571 276 80 C276.35707031 80.87527344 276.71414063 81.75054687 277.08203125 82.65234375 C278.29922076 87.0912008 278.32960676 91.2313088 278.3125 95.8125 C278.32861328 96.66392578 278.34472656 97.51535156 278.36132812 98.39257812 C278.36592951 104.43419333 277.24411408 109.39863011 275 115 C276.00933594 114.76925781 277.01867187 114.53851563 278.05859375 114.30078125 C279.51806285 113.97061813 280.97771592 113.64126769 282.4375 113.3125 C283.63511963 113.04240112 283.63511963 113.04240112 284.85693359 112.7668457 C289.53172373 111.72676932 294.21169856 110.75464245 298.91796875 109.8671875 C319.45100918 105.98763531 339.05839134 100.1026941 358.8125 93.375 C359.49063751 93.14520447 360.16877502 92.91540894 360.86746216 92.6786499 C369.1277643 89.86850744 377.11297474 86.73726907 385 83 C386.72067285 82.22345469 388.44331977 81.45126788 390.16796875 80.68359375 C390.99876953 80.31169922 391.82957031 79.93980469 392.68554688 79.55664062 C394.36473692 78.80552752 396.04443174 78.05554197 397.72460938 77.30664062 C401.69386119 75.52774757 405.61697451 73.70675551 409.48828125 71.72265625 C413 70 413 70 415 70 C414.67 46.9 414.34 23.8 414 0 C416.97 0 419.94 0 423 0 C425.31026658 12.60895068 425.27453169 25.12590952 425.20581055 37.90893555 C425.18741263 41.45433676 425.18530245 44.99947758 425.18554688 48.54492188 C425.1806351 50.82031474 425.17480827 53.09570586 425.16796875 55.37109375 C425.16685593 56.42018417 425.1657431 57.4692746 425.16459656 58.55015564 C425.06639293 73.82070286 425.06639293 73.82070286 422.46655273 76.69580078 C421.79567627 77.02563965 421.1247998 77.35547852 420.43359375 77.6953125 C419.6557251 78.09347168 418.87785645 78.49163086 418.07641602 78.90185547 C417.20557373 79.30549316 416.33473145 79.70913086 415.4375 80.125 C414.5105835 80.57891113 413.58366699 81.03282227 412.62866211 81.50048828 C409.43650779 83.04027897 406.22135849 84.52234664 403 86 C401.83887695 86.54462891 400.67775391 87.08925781 399.48144531 87.65039062 C346.49773426 112.4592499 288.31528706 128.2450192 229.515625 128.1328125 C228.37575134 128.13376923 227.23587769 128.13472595 226.0614624 128.13571167 C223.66825301 128.13638692 221.27504172 128.13457879 218.88183594 128.13037109 C215.27274331 128.12503363 211.66377624 128.13032837 208.0546875 128.13671875 C191.26345458 128.14293684 174.707008 127.81451005 158.0625 125.375 C156.30691772 125.11940308 156.30691772 125.11940308 154.51586914 124.85864258 C139.22016467 122.5369821 124.08999555 119.39328164 109 116 C107.25517334 115.60820557 107.25517334 115.60820557 105.47509766 115.20849609 C69.86371533 107.0131876 31.11640164 94.6280613 0 75 C-1.35336858 72.29326284 -1.12717154 70.17891138 -1.12939453 67.1484375 C-1.13254669 65.91955811 -1.13569885 64.69067871 -1.13894653 63.42456055 C-1.13715511 62.07470667 -1.13510375 60.72485312 -1.1328125 59.375 C-1.13348642 57.98933902 -1.13445718 56.60367815 -1.13571167 55.21801758 C-1.13718841 52.30597819 -1.13503747 49.39396942 -1.13037109 46.48193359 C-1.12471624 42.77467361 -1.12792574 39.0674867 -1.13394356 35.36022949 C-1.13758626 32.49293485 -1.13639296 29.62565702 -1.13381577 26.75836182 C-1.13315449 25.39341218 -1.13394656 24.02846096 -1.13629532 22.66351318 C-1.14653256 15.0315678 -0.91301161 7.57971903 0 0 Z " fill="#FBFCFC" transform="translate(35,300)"/>
<path d="M0 0 C0.96941025 0.48157059 0.96941025 0.48157059 1.95840454 0.97286987 C4.04732363 2.01593808 6.12757577 3.07492311 8.20703125 4.13671875 C9.27840836 4.67868393 9.27840836 4.67868393 10.37142944 5.2315979 C51.85652319 26.23227605 92.11449997 54.79406059 122.01953125 90.82421875 C122.45813477 91.34371094 122.89673828 91.86320312 123.34863281 92.3984375 C137.28791208 108.93935042 149.31744518 126.41043883 159.68945312 145.39453125 C160.9024096 147.61026965 162.1373087 149.81195478 163.37890625 152.01171875 C168.17664706 160.64387446 172.20051818 169.55785158 176.08203125 178.63671875 C176.81691772 180.34734497 176.81691772 180.34734497 177.56665039 182.0925293 C178.01645264 183.16543213 178.46625488 184.23833496 178.9296875 185.34375 C179.53502319 186.78391479 179.53502319 186.78391479 180.15258789 188.25317383 C181.01953125 190.82421875 181.01953125 190.82421875 181.01953125 194.82421875 C177.71953125 194.82421875 174.41953125 194.82421875 171.01953125 194.82421875 C170.7978125 194.03144531 170.57609375 193.23867187 170.34765625 192.421875 C160.96116306 161.64369987 142.87863123 133.84279079 123.01953125 108.82421875 C122.2925 107.90253906 121.56546875 106.98085937 120.81640625 106.03125 C112.27944698 95.39075939 102.8849676 85.60874334 93.26953125 75.94921875 C92.57279297 75.24780762 91.87605469 74.54639648 91.15820312 73.82373047 C86.60793245 69.28747722 81.90780755 64.99270424 77.01953125 60.82421875 C76.39272461 60.28539063 75.76591797 59.7465625 75.12011719 59.19140625 C34.90334978 23.78040798 34.90334978 23.78040798 -13.85253906 6.48925781 C-18.51830959 7.22370448 -22.66982321 9.60639598 -26.85546875 11.69921875 C-28.38349121 12.44969482 -28.38349121 12.44969482 -29.94238281 13.21533203 C-55.84013636 26.09911863 -79.16135322 42.92209728 -100.98046875 61.82421875 C-101.77453125 62.50484375 -102.56859375 63.18546875 -103.38671875 63.88671875 C-115.02252954 74.08797752 -126.47488945 85.07407547 -136 97.2890625 C-138.13836811 100.02634238 -140.39763444 102.63310302 -142.66796875 105.26171875 C-152.93107837 117.57105584 -161.96908761 131.02212847 -169.90185547 144.94042969 C-171.0264629 146.90454715 -172.17691919 148.85215253 -173.328125 150.80078125 C-181.34446575 164.58671254 -188.92901453 179.6698561 -193.98046875 194.82421875 C-196.95046875 194.82421875 -199.92046875 194.82421875 -202.98046875 194.82421875 C-201.6787791 188.0348796 -199.64414588 182.07553809 -196.85546875 175.76171875 C-196.45513428 174.84414795 -196.0547998 173.92657715 -195.64233398 172.98120117 C-192.02970124 164.78195906 -188.17034002 156.7431333 -183.98046875 148.82421875 C-183.60841309 148.1173291 -183.23635742 147.41043945 -182.85302734 146.68212891 C-174.03145528 130.04118584 -163.75071016 114.5223809 -151.98046875 99.82421875 C-151.25472656 98.90511719 -150.52898437 97.98601562 -149.78125 97.0390625 C-136.76320285 80.79571821 -121.97009983 64.68122127 -105.55078125 51.83984375 C-102.8048315 49.68648498 -100.18398404 47.4172612 -97.54296875 45.13671875 C-84.66973807 34.40345369 -70.57028259 25.05193925 -55.98046875 16.82421875 C-55.16884277 16.36305664 -54.3572168 15.90189453 -53.52099609 15.42675781 C-43.53399766 9.77817765 -33.44005567 4.37062469 -23.04296875 -0.48828125 C-22.2331958 -0.87951172 -21.42342285 -1.27074219 -20.58911133 -1.67382812 C-19.82236084 -2.02123047 -19.05561035 -2.36863281 -18.265625 -2.7265625 C-17.6044165 -3.03247314 -16.94320801 -3.33838379 -16.26196289 -3.65356445 C-10.32594749 -5.0122736 -5.22583629 -2.61452829 0 0 Z " fill="#F9FBFC" transform="translate(256.98046875,21.17578125)"/>
<path d="M0 0 C2.97848848 1.28605682 5.60782591 2.79492332 8 5 C8 5.66 8 6.32 8 7 C8.47308594 6.6390625 8.94617188 6.278125 9.43359375 5.90625 C13.93257291 2.74907165 17.34401295 1.24483409 22.88671875 1.5703125 C27.6478239 2.53837455 30.38378833 5.0756825 33 9 C33.86882812 8.89300781 34.73765625 8.78601563 35.6328125 8.67578125 C47.44739521 7.44674748 47.44739521 7.44674748 52 11 C56.80841963 15.83120834 59.12925018 19.33936206 59.3125 26.3125 C59.25907223 31.37478087 58.47881166 34.14510059 55 38 C50.68283209 41.80321935 48.36237453 43.03498446 42.6875 43.25 C37.27977031 43.670835 35.73221487 45.07135277 32 49 C27.51937168 50.21977178 23.45212356 50.31241738 19 49 C18.443125 49.928125 17.88625 50.85625 17.3125 51.8125 C14.90468579 55.13137905 13.7818089 56.52016173 10 58 C4.87107972 58.69588366 1.14064709 58.59069224 -3.5 56.1875 C-6 54 -6 54 -8 51 C-8 50.01 -8 49.02 -8 48 C-8.65226562 48.05800781 -9.30453125 48.11601563 -9.9765625 48.17578125 C-18.01223021 48.59060185 -18.01223021 48.59060185 -21.5 45.875 C-24.85447029 42.01735916 -25.69717263 39.03326948 -26.4375 34.0625 C-25.83630885 29.85416196 -23.83134864 27.11448351 -21 24 C-20.34 23.67 -19.68 23.34 -19 23 C-19.165 22.484375 -19.33 21.96875 -19.5 21.4375 C-20.55142655 16.31179556 -20.55845548 11.62958611 -18 7 C-12.35439722 0.77536104 -8.31055675 -1.23618002 0 0 Z " fill="#1A98D4" transform="translate(231,67)"/>
<path d="M0 0 C29 0 29 0 36.8125 6.25 C37.534375 7.1575 38.25625 8.065 39 9 C39.4640625 9.54140625 39.928125 10.0828125 40.40625 10.640625 C44.93716406 16.63150026 44.93616902 22.7335452 44 30 C42.27843086 37.0894431 38.14030714 42.1271919 32 46 C24 49 24 49 0 49 C0 32.83 0 16.66 0 0 Z " fill="#F5F7F9" transform="translate(410,234)"/>
<path d="M0 0 C0.66 0 1.32 0 2 0 C3.56264902 1.84092899 5.00592212 3.68539833 6.4375 5.625 C7.34298571 6.82739886 8.2492626 8.02920224 9.15625 9.23046875 C9.62546875 9.8548584 10.0946875 10.47924805 10.578125 11.12255859 C12.82632238 14.09107472 15.13058673 17.01452662 17.4375 19.9375 C18.34899332 21.09502454 19.2604513 22.2525769 20.171875 23.41015625 C20.63013672 23.99168457 21.08839844 24.57321289 21.56054688 25.17236328 C24.10592762 28.40416794 26.64638567 31.63984047 29.1875 34.875 C30.11846897 36.05991203 31.04945656 37.24480943 31.98046875 38.4296875 C32.64691406 39.27789062 33.31335938 40.12609375 34 41 C28.58467742 47.86626344 28.58467742 47.86626344 25 50 C21.77857154 49.46309526 19.25024511 48.12567538 16.34765625 46.66796875 C15.38730469 46.20003906 14.42695313 45.73210937 13.4375 45.25 C12.52871094 44.78078125 11.61992187 44.3115625 10.68359375 43.828125 C8.08385829 42.79034141 8.08385829 42.79034141 5.6953125 43.47265625 C0.88987547 46.19573724 -3.45221305 49.5890162 -7.84960938 52.91992188 C-8.58115234 53.45552734 -9.31269531 53.99113281 -10.06640625 54.54296875 C-10.72584229 55.03821045 -11.38527832 55.53345215 -12.06469727 56.04370117 C-14 57 -14 57 -16.09838867 56.78271484 C-20.55992981 54.94631724 -23.71597972 50.42890353 -27 47 C-22.15583448 37.91606204 -16.90936122 29.11339271 -11.56640625 20.31640625 C-7.52845188 13.63602775 -3.67313397 6.88798121 0 0 Z " fill="#D1D1D3" transform="translate(164,112)"/>
<path d="M0 0 C6.4659375 -0.0928125 6.4659375 -0.0928125 13.0625 -0.1875 C14.40836182 -0.21481201 15.75422363 -0.24212402 17.14086914 -0.27026367 C25.298512 -0.3269182 30.61531726 -0.01678244 36.875 5.5625 C40.32738852 9.52259272 40.34043524 12.27110207 40.28125 17.390625 C39.83458164 21.5347148 38.51556007 23.66858261 36 27 C31.93548387 30 31.93548387 30 29 30 C29.68707031 30.95261719 30.37414062 31.90523438 31.08203125 32.88671875 C31.99228928 34.15357271 32.90243985 35.42050388 33.8125 36.6875 C34.26431641 37.31333984 34.71613281 37.93917969 35.18164062 38.58398438 C37.61469073 41.97604693 39.91509568 45.37739216 42 49 C37.98747419 50.11760874 34.97725653 50.34226217 31 49 C28.20913691 45.95254984 26.25626097 42.33343477 24.15185547 38.796875 C21.3770789 34.2948564 21.3770789 34.2948564 16.86328125 31.71484375 C13.51508528 31.39067683 13.51508528 31.39067683 9 32 C9 37.61 9 43.22 9 49 C6.03 49 3.06 49 0 49 C0 32.83 0 16.66 0 0 Z " fill="#F4F6F8" transform="translate(86,234)"/>
<path d="M0 0 C2.97 0 5.94 0 9 0 C13.55672982 9.44485817 17.80309235 19.02287674 21.98403931 28.63861084 C22.5772188 30.00271034 23.1714343 31.3663598 23.76669312 32.72955322 C24.61606786 34.67632901 25.46104135 36.6249547 26.3046875 38.57421875 C26.79952637 39.71463623 27.29436523 40.85505371 27.80419922 42.0300293 C29 45 29 45 30 49 C27.03 49 24.06 49 21 49 C19.35 45.37 17.7 41.74 16 38 C8.41 38 0.82 38 -7 38 C-8.32 41.63 -9.64 45.26 -11 49 C-14.3 49 -17.6 49 -21 49 C-19.69735019 44.87672706 -18.15722317 41.01866948 -16.3046875 37.11328125 C-12.7606199 29.53500903 -9.43593387 21.86987215 -6.125 14.1875 C-5.52618871 12.80136876 -4.92723108 11.41530073 -4.328125 10.02929688 C-2.88373718 6.68692133 -1.44130283 3.34370722 0 0 Z " fill="#F4F6F8" transform="translate(372,234)"/>
<path d="M0 0 C2.97 0 5.94 0 9 0 C13.64342013 9.83769398 18.1496196 19.72695363 22.50952148 29.69360352 C23.45744955 31.85805174 24.41129134 34.01983771 25.36523438 36.18164062 C25.97171092 37.56494781 26.57784459 38.94840539 27.18359375 40.33203125 C27.61000404 41.29590508 27.61000404 41.29590508 28.04502869 42.2792511 C30 46.77109728 30 46.77109728 30 49 C26.7 49 23.4 49 20 49 C18.02 43.555 18.02 43.555 16 38 C8.41 38 0.82 38 -7 38 C-8.65 41.63 -10.3 45.26 -12 49 C-14.64 49 -17.28 49 -20 49 C-19.36705698 45.22502343 -18.27795645 41.97419497 -16.77734375 38.45703125 C-16.32464111 37.39081543 -15.87193848 36.32459961 -15.40551758 35.22607422 C-14.92107178 34.09959473 -14.43662598 32.97311523 -13.9375 31.8125 C-13.44596436 30.66023926 -12.95442871 29.50797852 -12.44799805 28.32080078 C-8.39128596 18.83910135 -4.23914573 9.40142922 0 0 Z " fill="#F4F7F8" transform="translate(153,234)"/>
<path d="M0 0 C4.56390877 4.24649407 8.10668496 9.01898167 11.75 14.0625 C12.9863406 15.76218342 14.22332029 17.46140216 15.4609375 19.16015625 C16.06131836 19.98531738 16.66169922 20.81047852 17.28027344 21.66064453 C18.80128669 23.72968896 20.3455433 25.77547101 21.9140625 27.80859375 C22.3359082 28.35700928 22.75775391 28.9054248 23.19238281 29.47045898 C24.2981129 30.90055787 25.41053052 32.32547906 26.5234375 33.75 C28 36 28 36 28 39 C26.20703125 40.67578125 26.20703125 40.67578125 23.8125 42.3125 C22.64654297 43.14201172 22.64654297 43.14201172 21.45703125 43.98828125 C19 45 19 45 16.5390625 44.4296875 C12.63188754 42.22964745 9.28936759 39.40288605 5.81640625 36.58203125 C3.09740497 34.73511272 3.09740497 34.73511272 -0.03125 35.09765625 C-3.87143386 36.26487003 -7.06592654 38.05507963 -10.53515625 40.0390625 C-13.53932036 41.21025802 -14.96233832 40.98451901 -18 40 C-20.04049422 38.7295036 -22.05017465 37.40568804 -24 36 C-21.35526908 31.26376309 -18.55045413 26.70626881 -15.48828125 22.2265625 C-15.07458786 21.61734955 -14.66089447 21.0081366 -14.23466492 20.38046265 C-13.36949201 19.10746939 -12.50309024 17.8353105 -11.63549805 16.56396484 C-10.30294409 14.61099501 -8.97442152 12.65533002 -7.64648438 10.69921875 C-6.80231483 9.45817584 -5.95792196 8.2172848 -5.11328125 6.9765625 C-4.51644279 6.09854477 -4.51644279 6.09854477 -3.907547 5.20278931 C-1.11650848 1.11650848 -1.11650848 1.11650848 0 0 Z " fill="#D1D1D3" transform="translate(313,113)"/>
<path d="M0 0 C11.88 0 23.76 0 36 0 C36 2.64 36 5.28 36 8 C27.09 8 18.18 8 9 8 C9 11.96 9 15.92 9 20 C16.92 20 24.84 20 33 20 C33 22.64 33 25.28 33 28 C25.08 28 17.16 28 9 28 C9 32.29 9 36.58 9 41 C18.24 41 27.48 41 37 41 C37 43.64 37 46.28 37 49 C24.79 49 12.58 49 0 49 C0 32.83 0 16.66 0 0 Z " fill="#F3F6F8" transform="translate(309,234)"/>
<path d="M0 0 C2.97 0 5.94 0 9 0 C9 6.6 9 13.2 9 20 C16.59 20 24.18 20 32 20 C32 13.4 32 6.8 32 0 C34.64 0 37.28 0 40 0 C40 15.84 40 31.68 40 48 C37.36 48 34.72 48 32 48 C32 41.4 32 34.8 32 28 C24.41 28 16.82 28 9 28 C9 34.93 9 41.86 9 49 C6.03 49 3.06 49 0 49 C0 32.83 0 16.66 0 0 Z " fill="#F7F9FA" transform="translate(256,234)"/>
<path d="M0 0 C15 0 15 0 21 4 C25.4297372 9.02835033 26.30016588 11.88165291 26.21484375 18.4609375 C25.8089301 23.25809877 24.04164935 26.03847752 20.5625 29.25 C12.9126506 34.47428739 11.43493195 33 0 33 C0 22.11 0 11.22 0 0 Z " fill="#094B70" transform="translate(419,242)"/>
<path d="M0 0 C12.87 0 25.74 0 39 0 C39 2.64 39 5.28 39 8 C34.05 8 29.1 8 24 8 C24 21.53 24 35.06 24 49 C21.03 49 18.06 49 15 49 C15 35.47 15 21.94 15 8 C10.05 8 5.1 8 0 8 C0 5.36 0 2.72 0 0 Z " fill="#F6F8FA" transform="translate(38,234)"/>
<path d="M0 0 C2.97 0 5.94 0 9 0 C9 13.53 9 27.06 9 41 C17.25 41 25.5 41 34 41 C34 43.64 34 46.28 34 49 C22.78 49 11.56 49 0 49 C0 32.83 0 16.66 0 0 Z " fill="#F2F5F7" transform="translate(213,234)"/>
<path d="M0 0 C3.76362409 1.25454136 4.73739718 2.84560034 7.1875 5.9375 C7.97382813 6.92234375 8.76015625 7.9071875 9.5703125 8.921875 C10.37210938 9.93765625 11.17390625 10.9534375 12 12 C13.52012879 13.8963983 15.04090647 15.79227674 16.5625 17.6875 C17.70896699 19.12449468 18.8550516 20.56179506 20 22 C17.49163607 24.87724098 15.71339063 26.75714362 12.0625 28 C9 28 9 28 6.375 26.4375 C2.36705641 24.73041292 1.23700451 25.26900137 -2.875 26.3125 C-8.26787318 27.44890345 -8.26787318 27.44890345 -11.5546875 25.43359375 C-13.61592436 23.38335994 -15.40054833 21.42740312 -17 19 C-17 18.34 -17 17.68 -17 17 C-15.49609375 15.5546875 -15.49609375 15.5546875 -13.4375 13.875 C-9.73875645 10.74125102 -6.57030871 7.39834217 -3.4453125 3.69921875 C-2 2 -2 2 0 0 Z " fill="#D5D6D7" transform="translate(237,143)"/>
<path d="M0 0 C2.64 0 5.28 0 8 0 C8 15.84 8 31.68 8 48 C5.36 48 2.72 48 0 48 C0 32.16 0 16.32 0 0 Z " fill="#FEFEFE" transform="translate(192,234)"/>
<path d="M0 0 C2.536875 -0.061875 5.07375 -0.12375 7.6875 -0.1875 C8.47729248 -0.21481201 9.26708496 -0.24212402 10.08081055 -0.27026367 C14.62090198 -0.3236495 17.37900572 0.25136763 21 3 C22 4 22 4 22.25 7.875 C22.2020808 11.70169024 22.2020808 11.70169024 20.6875 13.9375 C16.61209075 16.50349842 12.43500744 16.11458329 7.8125 16.0625 C5.234375 16.041875 2.65625 16.02125 0 16 C0 10.72 0 5.44 0 0 Z " fill="#094A70" transform="translate(95,242)"/>
<path d="M0 0 C3.15886991 1.57943496 3.82401115 4.75636166 5.125 7.875 C5.40214844 8.51308594 5.67929687 9.15117187 5.96484375 9.80859375 C7.19159198 12.70323613 8 14.8245104 8 18 C3.05 18 -1.9 18 -7 18 C-6.16546516 13.8273258 -5.14069206 10.62279637 -3.5 6.75 C-3.0565625 5.69296875 -2.613125 4.6359375 -2.15625 3.546875 C-1 1 -1 1 0 0 Z " fill="#0F4B70" transform="translate(376,245)"/>
<path d="M0 0 C3.0247891 2.55466059 4.20620611 5.37016273 5.6875 9 C6.34298828 10.5778125 6.34298828 10.5778125 7.01171875 12.1875 C8 15 8 15 8 18 C3.05 18 -1.9 18 -7 18 C-6.16546516 13.8273258 -5.14069206 10.62279637 -3.5 6.75 C-3.0565625 5.69296875 -2.613125 4.6359375 -2.15625 3.546875 C-1 1 -1 1 0 0 Z " fill="#0F4B70" transform="translate(157,245)"/>
<path d="M0 0 C3.2455582 1.36018737 6.11939298 2.92752215 9.10546875 4.78125 C11.79084531 5.76310614 13.18242667 5.90055784 16.10546875 5.78125 C18.4820427 4.33302525 20.11242017 2.77429858 22.10546875 0.78125 C22.76546875 1.11125 23.42546875 1.44125 24.10546875 1.78125 C21.13546875 4.42125 18.16546875 7.06125 15.10546875 9.78125 C10.02120746 8.26971286 5.48641104 6.03467269 0.7890625 3.609375 C-1.81067296 2.57159141 -1.81067296 2.57159141 -4.19921875 3.25390625 C-9.00465578 5.97698724 -13.3467443 9.3702662 -17.74414062 12.70117188 C-18.47568359 13.23677734 -19.20722656 13.77238281 -19.9609375 14.32421875 C-20.62037354 14.81946045 -21.27980957 15.31470215 -21.95922852 15.82495117 C-23.89453125 16.78125 -23.89453125 16.78125 -25.99291992 16.56396484 C-28.84371259 15.39056116 -30.52646393 13.43026147 -32.64453125 11.21875 C-33.84335938 9.97931641 -33.84335938 9.97931641 -35.06640625 8.71484375 C-35.6696875 8.07675781 -36.27296875 7.43867188 -36.89453125 6.78125 C-33.89453125 6.78125 -33.89453125 6.78125 -32.2109375 8.34765625 C-31.04150748 9.67856658 -29.87483656 11.01190632 -28.7109375 12.34765625 C-27.03292723 14.01882805 -27.03292723 14.01882805 -25.03662109 13.56567383 C-22.50166982 12.63738588 -20.88586977 11.38122557 -18.8046875 9.6640625 C-6.04587307 -0.33958765 -6.04587307 -0.33958765 0 0 Z " fill="#EFF0F4" transform="translate(173.89453125,152.21875)"/>
<path d="M0 0 C3.20092363 2.25341728 6.11331155 4.730595 9.09765625 7.26171875 C11.84734513 9.36461014 11.84734513 9.36461014 14.703125 8.375 C16.37624943 7.3734017 18.03605486 6.34945392 19.6875 5.3125 C20.450625 4.879375 21.21375 4.44625 22 4 C22.66 4.33 23.32 4.66 24 5 C22.45469287 6.23024451 20.88796799 7.4336242 19.3125 8.625 C18.44238281 9.29789063 17.57226562 9.97078125 16.67578125 10.6640625 C14 12 14 12 11.5078125 11.47265625 C7.64827513 9.2062301 4.2845025 6.39893446 0.81640625 3.58203125 C-1.90259503 1.73511272 -1.90259503 1.73511272 -5.03125 2.09765625 C-8.87143386 3.26487003 -12.06592654 5.05507963 -15.53515625 7.0390625 C-18.53932036 8.21025802 -19.96233832 7.98451901 -23 7 C-25.04049422 5.7295036 -27.05017465 4.40568804 -29 3 C-28.34 2.67 -27.68 2.34 -27 2 C-26.071875 2.495 -25.14375 2.99 -24.1875 3.5 C-20.55304174 5.2103333 -19.73309688 5.08416287 -16 4 C-13.47356417 2.74278787 -11.04503523 1.36498059 -8.59765625 -0.0390625 C-5.19243165 -1.29873957 -3.46540072 -1.06525711 0 0 Z " fill="#EBECF1" transform="translate(318,146)"/>
<path d="M0 0 C0.66 0.33 1.32 0.66 2 1 C-0.97 3.64 -3.94 6.28 -7 9 C-10.72433382 7.7874262 -14.37802806 6.49140021 -18 5 C-18 4.67 -18 4.34 -18 4 C-16.80503906 4.19529297 -16.80503906 4.19529297 -15.5859375 4.39453125 C-9.58505298 5.373315 -9.58505298 5.373315 -3.8671875 3.953125 C-2.05360755 2.45905612 -2.05360755 2.45905612 0 0 Z " fill="#E6E7ED" transform="translate(196,153)"/>
<path d="M0 0 C2.64 0.33 5.28 0.66 8 1 C8 1.33 8 1.66 8 2 C6.9275 2.12375 5.855 2.2475 4.75 2.375 C1.62136385 2.89643936 -0.33480424 3.40088254 -3 5 C-2.01 3.35 -1.02 1.7 0 0 Z " fill="#83BEE8" transform="translate(268,110)"/>
</svg>
